<?xml version="1.0" encoding="utf-8"?><svg viewBox="0 0 24 24" xmlns="http://www.w3.org/2000/svg" xmlns:xlink="http://www.w3.org/1999/xlink"><style>:root>svg{display:none}:root>svg:target{display:block}</style><svg viewBox="0 0 13 8" id="arrow" xmlns="http://www.w3.org/2000/svg"><path d="M6.938.5a.823.823 0 01.595.252L12.7 6.04a.872.872 0 01-.01 1.209.832.832 0 01-1.18.01L6.938 2.578 2.364 7.257a.832.832 0 01-1.18-.01.871.871 0 01-.01-1.207L6.342.752A.838.838 0 016.938.5z"/></svg><svg viewBox="0 0 24 24" id="arrow-down" xmlns="http://www.w3.org/2000/svg"><path d="M13 4v12.175l5.6-5.6L20 12l-8 8-8-8 1.4-1.425 5.6 5.6V4h2z"/><path d="M13 4v12.175l5.6-5.6L20 12l-8 8-8-8 1.4-1.425 5.6 5.6V4h2z" fill-opacity=".2"/><defs><linearGradient id="ba" x1="4" y1="20" x2="19.915" y2="19.042" gradientUnits="userSpaceOnUse"><stop stop-color="#6BAB2B"/><stop offset="1" stop-color="#84D52C" stop-opacity="0"/></linearGradient></defs></svg><svg viewBox="0 0 24 24" id="arrow-up" xmlns="http://www.w3.org/2000/svg"><path d="M11 20V7.825l-5.6 5.6L4 12l8-8 8 8-1.4 1.425-5.6-5.6V20h-2z"/><path d="M11 20V7.825l-5.6 5.6L4 12l8-8 8 8-1.4 1.425-5.6-5.6V20h-2z" fill-opacity=".2"/><defs><linearGradient id="ca" x1="20" y1="4" x2="4.085" y2="4.958" gradientUnits="userSpaceOnUse"><stop stop-color="#6BAB2B"/><stop offset="1" stop-color="#84D52C" stop-opacity="0"/></linearGradient></defs></svg><svg viewBox="0 0 24 24" id="calendar" xmlns="http://www.w3.org/2000/svg"><g clip-path="url(#da)"><path d="M5.25.5a.25.25 0 01.25.25V2h13V.75a.25.25 0 11.5 0V2h2a2.5 2.5 0 012.5 2.5V21a2.5 2.5 0 01-2.5 2.5H3A2.5 2.5 0 01.5 21V4.5A2.5 2.5 0 013 2h2V.75A.25.25 0 015.25.5zM3 2.5a2 2 0 00-2 2V21a2 2 0 002 2h18a2 2 0 002-2V4.5a2 2 0 00-2-2H3z"/><path d="M5.25.5a.25.25 0 01.25.25V2h13V.75a.25.25 0 11.5 0V2h2a2.5 2.5 0 012.5 2.5V21a2.5 2.5 0 01-2.5 2.5H3A2.5 2.5 0 01.5 21V4.5A2.5 2.5 0 013 2h2V.75A.25.25 0 015.25.5zM3 2.5a2 2 0 00-2 2V21a2 2 0 002 2h18a2 2 0 002-2V4.5a2 2 0 00-2-2H3z"/><path d="M3.75 6a.75.75 0 01.75-.75h15a.75.75 0 01.75.75v1.5a.75.75 0 01-.75.75h-15a.75.75 0 01-.75-.75V6zm12.75 5.25a.75.75 0 01.75-.75h1.5a.75.75 0 01.75.75v1.5a.75.75 0 01-.75.75h-1.5a.75.75 0 01-.75-.75v-1.5zm-4.5 0a.75.75 0 01.75-.75h1.5a.75.75 0 01.75.75v1.5a.75.75 0 01-.75.75h-1.5a.75.75 0 01-.75-.75v-1.5zm-7.5 4.5a.75.75 0 01.75-.75h1.5a.75.75 0 01.75.75v1.5a.75.75 0 01-.75.75h-1.5a.75.75 0 01-.75-.75v-1.5zm4.5 0a.75.75 0 01.75-.75h1.5a.75.75 0 01.75.75v1.5a.75.75 0 01-.75.75h-1.5a.75.75 0 01-.75-.75v-1.5z"/><path d="M3.75 6a.75.75 0 01.75-.75h15a.75.75 0 01.75.75v1.5a.75.75 0 01-.75.75h-15a.75.75 0 01-.75-.75V6zm12.75 5.25a.75.75 0 01.75-.75h1.5a.75.75 0 01.75.75v1.5a.75.75 0 01-.75.75h-1.5a.75.75 0 01-.75-.75v-1.5zm-4.5 0a.75.75 0 01.75-.75h1.5a.75.75 0 01.75.75v1.5a.75.75 0 01-.75.75h-1.5a.75.75 0 01-.75-.75v-1.5zm-7.5 4.5a.75.75 0 01.75-.75h1.5a.75.75 0 01.75.75v1.5a.75.75 0 01-.75.75h-1.5a.75.75 0 01-.75-.75v-1.5zm4.5 0a.75.75 0 01.75-.75h1.5a.75.75 0 01.75.75v1.5a.75.75 0 01-.75.75h-1.5a.75.75 0 01-.75-.75v-1.5z" fill-opacity=".2"/></g><defs><linearGradient id="db" x1="24" y1="0" x2=".127" y2="1.437" gradientUnits="userSpaceOnUse"><stop stop-color="#6BAB2B"/><stop offset="1" stop-color="#84D52C" stop-opacity="0"/></linearGradient><linearGradient id="dc" x1="20.25" y1="5.25" x2="3.877" y2="6.525" gradientUnits="userSpaceOnUse"><stop stop-color="#6BAB2B"/><stop offset="1" stop-color="#84D52C" stop-opacity="0"/></linearGradient><clipPath id="da"><path d="M0 0h24v24H0z"/></clipPath></defs></svg><svg viewBox="0 0 18 19" id="cancell" xmlns="http://www.w3.org/2000/svg"><path d="M9.075 16.71a6.825 6.825 0 100-13.65 6.825 6.825 0 000 13.65z" fill-opacity=".9"/><path d="M11.25 7.56L9 9.81m0 0l-2.25 2.25M9 9.81L6.75 7.56M9 9.81l2.25 2.25m4.65-2.176a6.825 6.825 0 11-13.65 0 6.825 6.825 0 0113.65 0z"/></svg><svg viewBox="0 0 22 8" id="cbd" xmlns="http://www.w3.org/2000/svg"><path d="M3.855 7.624c-1.107 0-2.027-.336-2.763-1.009C.364 5.936 0 5.065 0 4c0-1.071.364-1.943 1.092-2.615C1.821.712 2.742.376 3.855.376c.84 0 1.516.196 2.027.588a3.63 3.63 0 011.155 1.45l-1.827.85a1.47 1.47 0 00-.515-.713 1.307 1.307 0 00-.84-.305c-.504 0-.914.168-1.23.504-.314.336-.472.753-.472 1.25s.158.914.473 1.25c.315.336.725.504 1.229.504.308 0 .588-.098.84-.294a1.53 1.53 0 00.515-.725l1.827.84c-.112.26-.252.501-.42.725-.168.217-.378.43-.63.641a2.9 2.9 0 01-.935.504 3.835 3.835 0 01-1.197.179z"/><path d="M3.855 7.624c-1.107 0-2.027-.336-2.763-1.009C.364 5.936 0 5.065 0 4c0-1.071.364-1.943 1.092-2.615C1.821.712 2.742.376 3.855.376c.84 0 1.516.196 2.027.588a3.63 3.63 0 011.155 1.45l-1.827.85a1.47 1.47 0 00-.515-.713 1.307 1.307 0 00-.84-.305c-.504 0-.914.168-1.23.504-.314.336-.472.753-.472 1.25s.158.914.473 1.25c.315.336.725.504 1.229.504.308 0 .588-.098.84-.294a1.53 1.53 0 00.515-.725l1.827.84c-.112.26-.252.501-.42.725-.168.217-.378.43-.63.641a2.9 2.9 0 01-.935.504 3.835 3.835 0 01-1.197.179z" fill-opacity=".2"/><path d="M12.103 7.498H7.702V.492h4.254c.672 0 1.187.182 1.544.546.357.364.536.777.536 1.24 0 .427-.112.784-.337 1.07a1.48 1.48 0 01-.86.536c.384.056.703.246.955.568.252.315.378.696.378 1.145 0 .525-.179.973-.536 1.344-.357.371-.868.557-1.533.557zm-.64-4.422a.415.415 0 00.42-.42.35.35 0 00-.127-.284.422.422 0 00-.294-.116H9.824v.82h1.638zm.062 2.657c.154 0 .273-.038.357-.115a.423.423 0 00.137-.326.411.411 0 00-.137-.315.483.483 0 00-.357-.137H9.824v.893h1.701z"/><path d="M12.103 7.498H7.702V.492h4.254c.672 0 1.187.182 1.544.546.357.364.536.777.536 1.24 0 .427-.112.784-.337 1.07a1.48 1.48 0 01-.86.536c.384.056.703.246.955.568.252.315.378.696.378 1.145 0 .525-.179.973-.536 1.344-.357.371-.868.557-1.533.557zm-.64-4.422a.415.415 0 00.42-.42.35.35 0 00-.127-.284.422.422 0 00-.294-.116H9.824v.82h1.638zm.062 2.657c.154 0 .273-.038.357-.115a.423.423 0 00.137-.326.411.411 0 00-.137-.315.483.483 0 00-.357-.137H9.824v.893h1.701z" fill-opacity=".2"/><path d="M18.166 7.498h-3.14V.492h3.13c1.134 0 2.058.311 2.773.935.714.616 1.071 1.47 1.071 2.562 0 1.093-.357 1.95-1.071 2.574-.715.623-1.635.935-2.763.935zm-.01-1.849c.51 0 .92-.161 1.229-.483.308-.322.462-.714.462-1.177 0-.497-.144-.896-.43-1.197-.288-.301-.705-.452-1.25-.452h-1.02v3.31h1.009z"/><path d="M18.166 7.498h-3.14V.492h3.13c1.134 0 2.058.311 2.773.935.714.616 1.071 1.47 1.071 2.562 0 1.093-.357 1.95-1.071 2.574-.715.623-1.635.935-2.763.935zm-.01-1.849c.51 0 .92-.161 1.229-.483.308-.322.462-.714.462-1.177 0-.497-.144-.896-.43-1.197-.288-.301-.705-.452-1.25-.452h-1.02v3.31h1.009z" fill-opacity=".2"/><defs><linearGradient id="fa" x1="22" y1=".376" x2=".747" y2="4.259" gradientUnits="userSpaceOnUse"><stop stop-color="#6BAB2B"/><stop offset="1" stop-color="#84D52C" stop-opacity="0"/></linearGradient><linearGradient id="fb" x1="22" y1=".376" x2=".747" y2="4.259" gradientUnits="userSpaceOnUse"><stop stop-color="#6BAB2B"/><stop offset="1" stop-color="#84D52C" stop-opacity="0"/></linearGradient><linearGradient id="fc" x1="22" y1=".376" x2=".747" y2="4.259" gradientUnits="userSpaceOnUse"><stop stop-color="#6BAB2B"/><stop offset="1" stop-color="#84D52C" stop-opacity="0"/></linearGradient></defs></svg><svg viewBox="0 0 24 24" id="quality" xmlns="http://www.w3.org/2000/svg"><path d="M21.918 16.641c-.088-.053-2.182-1.311-4.8-1.311-.27 0-.537.01-.802.027a13.09 13.09 0 001.806-1.168c2.765-2.16 3.927-5.67 3.975-5.818a.418.418 0 00-.078-.398.427.427 0 00-.38-.143c-.12.018-2.954.464-5.55 2.824a17.912 17.912 0 00-1.894 2.042c.248-.965.423-2.048.423-3.203 0-3.993-2.064-7.183-2.152-7.316-.154-.235-.543-.235-.697 0-.088.133-2.151 3.323-2.151 7.316 0 1.155.175 2.238.422 3.203a17.907 17.907 0 00-1.894-2.042c-2.595-2.36-5.43-2.806-5.55-2.824a.43.43 0 00-.38.143.418.418 0 00-.078.398c.048.148 1.21 3.658 3.975 5.818a13.09 13.09 0 001.806 1.168 13.113 13.113 0 00-.801-.027c-2.618 0-4.713 1.258-4.8 1.311a.418.418 0 00.002.714c.089.053 2.212 1.31 4.798 1.31.576 0 1.145-.082 1.685-.208a3.653 3.653 0 00-.852 2.31.418.418 0 00.535.383c.063-.019 1.554-.474 2.697-1.795.204-.237.37-.471.518-.702v2.93a.417.417 0 10.833 0v-2.93c.149.23.314.465.519.702 1.142 1.321 2.633 1.776 2.696 1.795a.423.423 0 00.36-.06.418.418 0 00.175-.322 3.652 3.652 0 00-.855-2.315 7.385 7.385 0 001.689.212c2.618 0 4.712-1.258 4.8-1.311a.418.418 0 000-.713zm-5.268-5.37a11.233 11.233 0 014.375-2.44c-.474 1.108-1.571 3.26-3.416 4.701-1.528 1.194-3.463 1.96-4.61 2.346.681-1.128 1.995-3.1 3.651-4.607zM6.626 13.532c-1.84-1.438-2.94-3.592-3.415-4.701a11.23 11.23 0 014.374 2.44c1.655 1.505 2.969 3.478 3.65 4.607-1.147-.386-3.081-1.153-4.609-2.346zm.492 4.3c-1.506 0-2.869-.485-3.658-.837.781-.35 2.132-.831 3.658-.831 1.51 0 3.015.31 3.942.548-.901.47-2.421 1.12-3.942 1.12zm3.435.977a5.46 5.46 0 01-1.684 1.281 2.7 2.7 0 01.998-1.508c.626-.47 1.133-.82 1.519-1.073a5.382 5.382 0 01-.833 1.3zm1.638-3.207l-.073.124-.074-.124c-.59-1.137-1.593-3.454-1.593-6.109 0-2.762 1.09-5.171 1.667-6.253.576 1.082 1.666 3.491 1.666 6.253 0 2.655-1.003 4.972-1.593 6.11zm1.492 3.207a5.359 5.359 0 01-.83-1.297c.385.252.89.602 1.515 1.07.62.466.886 1.063 1 1.51a5.442 5.442 0 01-1.685-1.282zm3.435-.978c-1.501 0-3.029-.65-3.938-1.121.927-.237 2.427-.546 3.938-.546 1.523 0 2.879.483 3.662.834-.782.35-2.135.833-3.662.833z"/></svg><svg viewBox="0 0 24 24" id="search" xmlns="http://www.w3.org/2000/svg"><path d="M21.725 20.312l-3.71-3.68a9 9 0 10-1.39 1.39l3.68 3.68a.995.995 0 101.42-1.39zm-10.71-2.29a7 7 0 110-14 7 7 0 010 14z"/></svg><svg viewBox="0 0 23 10" id="thc" xmlns="http://www.w3.org/2000/svg"><path d="M4.267 9.026H2.005V3.09H0V.962h6.26V3.09H4.267v5.936z"/><path d="M4.267 9.026H2.005V3.09H0V.962h6.26V3.09H4.267v5.936z" fill-opacity=".2"/><path d="M14.265 9.026h-2.263V5.943H9.326v3.083H7.064V.962h2.262v2.853h2.676V.962h2.263v8.064z"/><path d="M14.265 9.026h-2.263V5.943H9.326v3.083H7.064V.962h2.262v2.853h2.676V.962h2.263v8.064z" fill-opacity=".2"/><path d="M19.18 9.17c-1.179 0-2.16-.386-2.945-1.16-.776-.782-1.164-1.785-1.164-3.01 0-1.233.388-2.237 1.164-3.01.777-.774 1.759-1.16 2.946-1.16.896 0 1.616.225 2.161.676a4.13 4.13 0 011.232 1.669l-1.948.979a1.694 1.694 0 00-.55-.822 1.333 1.333 0 00-.895-.35c-.538 0-.975.193-1.31.58-.336.386-.504.866-.504 1.438s.168 1.052.504 1.439c.335.386.772.58 1.31.58.328 0 .627-.113.896-.339.269-.233.451-.511.549-.834l1.948.967c-.12.299-.269.577-.448.835-.179.25-.403.495-.672.737a3.03 3.03 0 01-.996.58 3.813 3.813 0 01-1.277.206z"/><path d="M19.18 9.17c-1.179 0-2.16-.386-2.945-1.16-.776-.782-1.164-1.785-1.164-3.01 0-1.233.388-2.237 1.164-3.01.777-.774 1.759-1.16 2.946-1.16.896 0 1.616.225 2.161.676a4.13 4.13 0 011.232 1.669l-1.948.979a1.694 1.694 0 00-.55-.822 1.333 1.333 0 00-.895-.35c-.538 0-.975.193-1.31.58-.336.386-.504.866-.504 1.438s.168 1.052.504 1.439c.335.386.772.58 1.31.58.328 0 .627-.113.896-.339.269-.233.451-.511.549-.834l1.948.967c-.12.299-.269.577-.448.835-.179.25-.403.495-.672.737a3.03 3.03 0 01-.996.58 3.813 3.813 0 01-1.277.206z" fill-opacity=".2"/><defs><linearGradient id="ia" x1="22.574" y1=".829" x2=".621" y2="4.405" gradientUnits="userSpaceOnUse"><stop stop-color="#6BAB2B"/><stop offset="1" stop-color="#84D52C" stop-opacity="0"/></linearGradient><linearGradient id="ib" x1="22.574" y1=".829" x2=".621" y2="4.405" gradientUnits="userSpaceOnUse"><stop stop-color="#6BAB2B"/><stop offset="1" stop-color="#84D52C" stop-opacity="0"/></linearGradient><linearGradient id="ic" x1="22.574" y1=".829" x2=".621" y2="4.405" gradientUnits="userSpaceOnUse"><stop stop-color="#6BAB2B"/><stop offset="1" stop-color="#84D52C" stop-opacity="0"/></linearGradient></defs></svg></svg>